
<svg width="160" height="120" viewBox="0 0 160 120" fill="none" xmlns="http://www.w3.org/2000/svg">
  <rect x="20" y="30" width="25" height="15" rx="3" fill="none" stroke="currentColor" stroke-width="1" opacity="0.2"/>
  <rect x="60" y="20" width="25" height="15" rx="3" fill="none" stroke="currentColor" stroke-width="1" opacity="0.2"/>
  <rect x="100" y="40" width="25" height="15" rx="3" fill="none" stroke="currentColor" stroke-width="1" opacity="0.2"/>
  <rect x="40" y="65" width="25" height="15" rx="3" fill="none" stroke="currentColor" stroke-width="1" opacity="0.2"/>
  <rect x="80" y="75" width="25" height="15" rx="3" fill="none" stroke="currentColor" stroke-width="1" opacity="0.2"/>
  <path d="M45 37 L60 27" stroke="currentColor" stroke-width="1" opacity="0.15"/>
  <path d="M85 27 L100 47" stroke="currentColor" stroke-width="1" opacity="0.15"/>
  <path d="M45 65 L32 45" stroke="currentColor" stroke-width="1" opacity="0.15"/>
  <path d="M65 72 L80 82" stroke="currentColor" stroke-width="1" opacity="0.15"/>
  <path d="M105 75 L112 55" stroke="currentColor" stroke-width="1" opacity="0.15"/>
  <circle cx="32" cy="37" r="2" fill="currentColor" opacity="0.2"/>
  <circle cx="72" cy="27" r="2" fill="currentColor" opacity="0.2"/>
  <circle cx="112" cy="47" r="2" fill="currentColor" opacity="0.2"/>
  <circle cx="52" cy="72" r="2" fill="currentColor" opacity="0.2"/>
  <circle cx="92" cy="82" r="2" fill="currentColor" opacity="0.2"/>
  <path d="M130 20 L140 30 L130 40 L120 30 Z" fill="currentColor" opacity="0.1"/>
  <path d="M130 80 L140 90 L130 100 L120 90 Z" fill="currentColor" opacity="0.1"/>
</svg>
